<?xml version="1.0" encoding="us-ascii" standalone="no"?><svg xmlns="http://www.w3.org/2000/svg" xmlns:xlink="http://www.w3.org/1999/xlink" contentStyleType="text/css" height="400px" preserveAspectRatio="none" style="width:671px;height:400px;background:#FFFFFF;" version="1.1" viewBox="0 0 671 400" width="671px" zoomAndPan="magnify"><defs/><g><line style="stroke:#181818;stroke-width:0.5;stroke-dasharray:5.0,5.0;" x1="28" x2="28" y1="81.4883" y2="319.6621"/><line style="stroke:#181818;stroke-width:0.5;stroke-dasharray:5.0,5.0;" x1="315" x2="315" y1="81.4883" y2="319.6621"/><line style="stroke:#181818;stroke-width:0.5;stroke-dasharray:5.0,5.0;" x1="518.5" x2="518.5" y1="81.4883" y2="319.6621"/><text fill="#000000" font-family="sans-serif" font-size="14" lengthAdjust="spacing" textLength="40" x="5" y="78.5352">Client</text><ellipse cx="28" cy="13.5" fill="#E2E2F0" rx="8" ry="8" style="stroke:#181818;stroke-width:0.5;"/><path d="M28,21.5 L28,48.5 M15,29.5 L41,29.5 M28,48.5 L15,63.5 M28,48.5 L41,63.5 " fill="none" style="stroke:#181818;stroke-width:0.5;"/><text fill="#000000" font-family="sans-serif" font-size="14" lengthAdjust="spacing" textLength="40" x="5" y="332.1973">Client</text><ellipse cx="28" cy="343.6504" fill="#E2E2F0" rx="8" ry="8" style="stroke:#181818;stroke-width:0.5;"/><path d="M28,351.6504 L28,378.6504 M15,359.6504 L41,359.6504 M28,378.6504 L15,393.6504 M28,378.6504 L41,393.6504 " fill="none" style="stroke:#181818;stroke-width:0.5;"/><text fill="#000000" font-family="sans-serif" font-size="14" lengthAdjust="spacing" textLength="76" x="274" y="78.5352">Bank agent</text><ellipse cx="315" cy="13.5" fill="#E2E2F0" rx="8" ry="8" style="stroke:#181818;stroke-width:0.5;"/><path d="M315,21.5 L315,48.5 M302,29.5 L328,29.5 M315,48.5 L302,63.5 M315,48.5 L328,63.5 " fill="none" style="stroke:#181818;stroke-width:0.5;"/><text fill="#000000" font-family="sans-serif" font-size="14" lengthAdjust="spacing" textLength="76" x="274" y="332.1973">Bank agent</text><ellipse cx="315" cy="343.6504" fill="#E2E2F0" rx="8" ry="8" style="stroke:#181818;stroke-width:0.5;"/><path d="M315,351.6504 L315,378.6504 M302,359.6504 L328,359.6504 M315,378.6504 L302,393.6504 M315,378.6504 L328,393.6504 " fill="none" style="stroke:#181818;stroke-width:0.5;"/><text fill="#000000" font-family="sans-serif" font-size="14" lengthAdjust="spacing" textLength="33" x="499.5" y="78.5352">Bank</text><path d="M498.5,37 L498.5,61 M498.5,49 L515.5,49 " fill="none" style="stroke:#181818;stroke-width:0.5;"/><ellipse cx="527.5" cy="49" fill="#E2E2F0" rx="12" ry="12" style="stroke:#181818;stroke-width:0.5;"/><text fill="#000000" font-family="sans-serif" font-size="14" lengthAdjust="spacing" textLength="33" x="499.5" y="332.1973">Bank</text><path d="M498.5,339.1504 L498.5,363.1504 M498.5,351.1504 L515.5,351.1504 " fill="none" style="stroke:#181818;stroke-width:0.5;"/><ellipse cx="527.5" cy="351.1504" fill="#E2E2F0" rx="12" ry="12" style="stroke:#181818;stroke-width:0.5;"/><polygon fill="#181818" points="303,108.7988,313,112.7988,303,116.7988,307,112.7988" style="stroke:#181818;stroke-width:1.0;"/><line style="stroke:#181818;stroke-width:1.0;" x1="28" x2="309" y1="112.7988" y2="112.7988"/><text fill="#000000" font-family="sans-serif" font-size="13" font-weight="bold" lengthAdjust="spacing" textLength="9" x="35" y="108.0566">1</text><a href="https://github.com/PawelJaworski/ddd-loan-application/blob/main/src/main/java/pl/javorek/ddd/service/applicationforloan/application/command/ApplicationForALoanCmdFacade.java" target="_top" title="https://github.com/PawelJaworski/ddd-loan-application/blob/main/src/main/java/pl/javorek/ddd/service/applicationforloan/application/command/ApplicationForALoanCmdFacade.java" xlink:actuate="onRequest" xlink:href="https://github.com/PawelJaworski/ddd-loan-application/blob/main/src/main/java/pl/javorek/ddd/service/applicationforloan/application/command/ApplicationForALoanCmdFacade.java" xlink:show="new" xlink:title="https://github.com/PawelJaworski/ddd-loan-application/blob/main/src/main/java/pl/javorek/ddd/service/applicationforloan/application/command/ApplicationForALoanCmdFacade.java" xlink:type="simple"><text fill="#0000FF" font-family="sans-serif" font-size="13" lengthAdjust="spacing" text-decoration="underline" textLength="149" x="48" y="108.0566">Submit loan application</text></a><polygon fill="#181818" points="39,138.1094,29,142.1094,39,146.1094,35,142.1094" style="stroke:#181818;stroke-width:1.0;"/><line style="stroke:#181818;stroke-width:1.0;stroke-dasharray:2.0,2.0;" x1="33" x2="314" y1="142.1094" y2="142.1094"/><text fill="#000000" font-family="sans-serif" font-size="13" font-weight="bold" lengthAdjust="spacing" textLength="9" x="45" y="137.3672">2</text><text fill="#000000" font-family="sans-serif" font-size="13" lengthAdjust="spacing" textLength="172" x="58" y="137.3672">Loan application submitted</text><polygon fill="#181818" points="303,167.4199,313,171.4199,303,175.4199,307,171.4199" style="stroke:#181818;stroke-width:1.0;"/><line style="stroke:#181818;stroke-width:1.0;" x1="28" x2="309" y1="171.4199" y2="171.4199"/><text fill="#000000" font-family="sans-serif" font-size="13" font-weight="bold" lengthAdjust="spacing" textLength="9" x="35" y="166.6777">3</text><a href="https://github.com/PawelJaworski/ddd-loan-application/blob/main/src/main/java/pl/javorek/ddd/service/applicationforloan/application/command/ApplicationForALoanCmdFacade.java" target="_top" title="https://github.com/PawelJaworski/ddd-loan-application/blob/main/src/main/java/pl/javorek/ddd/service/applicationforloan/application/command/ApplicationForALoanCmdFacade.java" xlink:actuate="onRequest" xlink:href="https://github.com/PawelJaworski/ddd-loan-application/blob/main/src/main/java/pl/javorek/ddd/service/applicationforloan/application/command/ApplicationForALoanCmdFacade.java" xlink:show="new" xlink:title="https://github.com/PawelJaworski/ddd-loan-application/blob/main/src/main/java/pl/javorek/ddd/service/applicationforloan/application/command/ApplicationForALoanCmdFacade.java" xlink:type="simple"><text fill="#0000FF" font-family="sans-serif" font-size="13" lengthAdjust="spacing" text-decoration="underline" textLength="176" x="48" y="166.6777">Provide required documents</text></a><polygon fill="#181818" points="507,196.7305,517,200.7305,507,204.7305,511,200.7305" style="stroke:#181818;stroke-width:1.0;"/><line style="stroke:#181818;stroke-width:1.0;" x1="315" x2="513" y1="200.7305" y2="200.7305"/><text fill="#000000" font-family="sans-serif" font-size="13" font-weight="bold" lengthAdjust="spacing" textLength="9" x="322" y="195.9883">4</text><a href="https://github.com/PawelJaworski/ddd-loan-application/blob/main/src/main/java/pl/javorek/ddd/service/applicationforloan/application/command/ApplicationForALoanCmdFacade.java" target="_top" title="https://github.com/PawelJaworski/ddd-loan-application/blob/main/src/main/java/pl/javorek/ddd/service/applicationforloan/application/command/ApplicationForALoanCmdFacade.java" xlink:actuate="onRequest" xlink:href="https://github.com/PawelJaworski/ddd-loan-application/blob/main/src/main/java/pl/javorek/ddd/service/applicationforloan/application/command/ApplicationForALoanCmdFacade.java" xlink:show="new" xlink:title="https://github.com/PawelJaworski/ddd-loan-application/blob/main/src/main/java/pl/javorek/ddd/service/applicationforloan/application/command/ApplicationForALoanCmdFacade.java" xlink:type="simple"><text fill="#0000FF" font-family="sans-serif" font-size="13" lengthAdjust="spacing" text-decoration="underline" textLength="167" x="335" y="195.9883">Send request for loan start</text></a><line style="stroke:#181818;stroke-width:1.0;" x1="519" x2="561" y1="230.041" y2="230.041"/><line style="stroke:#181818;stroke-width:1.0;" x1="561" x2="561" y1="230.041" y2="243.041"/><line style="stroke:#181818;stroke-width:1.0;" x1="520" x2="561" y1="243.041" y2="243.041"/><polygon fill="#181818" points="530,239.041,520,243.041,530,247.041,526,243.041" style="stroke:#181818;stroke-width:1.0;"/><text fill="#000000" font-family="sans-serif" font-size="13" font-weight="bold" lengthAdjust="spacing" textLength="9" x="526" y="225.2988">5</text><text fill="#000000" font-family="sans-serif" font-size="13" lengthAdjust="spacing" textLength="125" x="539" y="225.2988">Accept loan request</text><polygon fill="#181818" points="326,268.3516,316,272.3516,326,276.3516,322,272.3516" style="stroke:#181818;stroke-width:1.0;"/><line style="stroke:#181818;stroke-width:1.0;stroke-dasharray:2.0,2.0;" x1="320" x2="518" y1="272.3516" y2="272.3516"/><text fill="#000000" font-family="sans-serif" font-size="13" font-weight="bold" lengthAdjust="spacing" textLength="9" x="332" y="267.6094">6</text><text fill="#000000" font-family="sans-serif" font-size="13" lengthAdjust="spacing" textLength="78" x="345" y="267.6094">Loan started</text><polygon fill="#181818" points="39,297.6621,29,301.6621,39,305.6621,35,301.6621" style="stroke:#181818;stroke-width:1.0;"/><line style="stroke:#181818;stroke-width:1.0;stroke-dasharray:2.0,2.0;" x1="33" x2="314" y1="301.6621" y2="301.6621"/><text fill="#000000" font-family="sans-serif" font-size="13" font-weight="bold" lengthAdjust="spacing" textLength="9" x="45" y="296.9199">7</text><text fill="#000000" font-family="sans-serif" font-size="13" lengthAdjust="spacing" textLength="250" x="58" y="296.9199">Communication about started loan sent</text><!--SRC=[tLEnRWCX3DtlAwpi5_OCbQwHCbGP8cMCCXXm4ve3hc0IzUyBEP9S8_K3MXQmUNxusGOJUvUifD2WOXzWsHjo31X1NK_LFQxPAxeJu27xPmKYizaLgv4-EOtXwuwwtpSZ3xGl3pWiOBSxCWzn8SJ1y379kV9MRF12_HjUV8Wd8xJMRU_HjJWClL78nZiXUo-5HUD436eyVE0PnT2NtGSwbJWHAPoD8Z49VVUXi4rT8ZzgqMdHFNmh7xfrnYsjNg52JVF23ziahM4e331XsE-RXwesQwng5x1-GaAyCZ3fVrAHJV1dema2VIOJI8FsAjci9VuiogZoBxQSdBwgeyYGgSRcHyR0LU54NASK3NK-Qao5FBLvVIV9a_3Bx2npZidT1WVpv-9RI4qYuxu1]--></g></svg>