<?xml version="1.0" encoding="us-ascii" standalone="no"?><svg xmlns="http://www.w3.org/2000/svg" xmlns:xlink="http://www.w3.org/1999/xlink" contentStyleType="text/css" height="442px" preserveAspectRatio="none" style="width:745px;height:442px;background:#FFFFFF;" version="1.1" viewBox="0 0 745 442" width="745px" zoomAndPan="magnify"><defs/><g><line style="stroke:#181818;stroke-width:0.5;stroke-dasharray:5.0,5.0;" x1="28" x2="28" y1="81.4883" y2="361.9727"/><line style="stroke:#181818;stroke-width:0.5;stroke-dasharray:5.0,5.0;" x1="315" x2="315" y1="81.4883" y2="361.9727"/><line style="stroke:#181818;stroke-width:0.5;stroke-dasharray:5.0,5.0;" x1="592.5" x2="592.5" y1="81.4883" y2="361.9727"/><text fill="#000000" font-family="sans-serif" font-size="14" lengthAdjust="spacing" textLength="40" x="5" y="78.5352">Client</text><ellipse cx="28" cy="13.5" fill="#E2E2F0" rx="8" ry="8" style="stroke:#181818;stroke-width:0.5;"/><path d="M28,21.5 L28,48.5 M15,29.5 L41,29.5 M28,48.5 L15,63.5 M28,48.5 L41,63.5 " fill="none" style="stroke:#181818;stroke-width:0.5;"/><text fill="#000000" font-family="sans-serif" font-size="14" lengthAdjust="spacing" textLength="40" x="5" y="374.5078">Client</text><ellipse cx="28" cy="385.9609" fill="#E2E2F0" rx="8" ry="8" style="stroke:#181818;stroke-width:0.5;"/><path d="M28,393.9609 L28,420.9609 M15,401.9609 L41,401.9609 M28,420.9609 L15,435.9609 M28,420.9609 L41,435.9609 " fill="none" style="stroke:#181818;stroke-width:0.5;"/><text fill="#000000" font-family="sans-serif" font-size="14" lengthAdjust="spacing" textLength="76" x="274" y="78.5352">Bank agent</text><ellipse cx="315" cy="13.5" fill="#E2E2F0" rx="8" ry="8" style="stroke:#181818;stroke-width:0.5;"/><path d="M315,21.5 L315,48.5 M302,29.5 L328,29.5 M315,48.5 L302,63.5 M315,48.5 L328,63.5 " fill="none" style="stroke:#181818;stroke-width:0.5;"/><text fill="#000000" font-family="sans-serif" font-size="14" lengthAdjust="spacing" textLength="76" x="274" y="374.5078">Bank agent</text><ellipse cx="315" cy="385.9609" fill="#E2E2F0" rx="8" ry="8" style="stroke:#181818;stroke-width:0.5;"/><path d="M315,393.9609 L315,420.9609 M302,401.9609 L328,401.9609 M315,420.9609 L302,435.9609 M315,420.9609 L328,435.9609 " fill="none" style="stroke:#181818;stroke-width:0.5;"/><text fill="#000000" font-family="sans-serif" font-size="14" lengthAdjust="spacing" textLength="33" x="573.5" y="78.5352">Bank</text><path d="M572.5,37 L572.5,61 M572.5,49 L589.5,49 " fill="none" style="stroke:#181818;stroke-width:0.5;"/><ellipse cx="601.5" cy="49" fill="#E2E2F0" rx="12" ry="12" style="stroke:#181818;stroke-width:0.5;"/><text fill="#000000" font-family="sans-serif" font-size="14" lengthAdjust="spacing" textLength="33" x="573.5" y="374.5078">Bank</text><path d="M572.5,381.4609 L572.5,405.4609 M572.5,393.4609 L589.5,393.4609 " fill="none" style="stroke:#181818;stroke-width:0.5;"/><ellipse cx="601.5" cy="393.4609" fill="#E2E2F0" rx="12" ry="12" style="stroke:#181818;stroke-width:0.5;"/><polygon fill="#181818" points="303,108.7988,313,112.7988,303,116.7988,307,112.7988" style="stroke:#181818;stroke-width:1.0;"/><line style="stroke:#181818;stroke-width:1.0;" x1="28" x2="309" y1="112.7988" y2="112.7988"/><text fill="#000000" font-family="sans-serif" font-size="13" font-weight="bold" lengthAdjust="spacing" textLength="9" x="35" y="108.0566">1</text><a href="https://github.com/PawelJaworski/ddd-loan-application/blob/main/src/main/java/pl/javorek/ddd/service/applicationforloan/application/command/ApplicationForALoanCmdFacade.java" target="_top" title="https://github.com/PawelJaworski/ddd-loan-application/blob/main/src/main/java/pl/javorek/ddd/service/applicationforloan/application/command/ApplicationForALoanCmdFacade.java" xlink:actuate="onRequest" xlink:href="https://github.com/PawelJaworski/ddd-loan-application/blob/main/src/main/java/pl/javorek/ddd/service/applicationforloan/application/command/ApplicationForALoanCmdFacade.java" xlink:show="new" xlink:title="https://github.com/PawelJaworski/ddd-loan-application/blob/main/src/main/java/pl/javorek/ddd/service/applicationforloan/application/command/ApplicationForALoanCmdFacade.java" xlink:type="simple"><text fill="#0000FF" font-family="sans-serif" font-size="13" lengthAdjust="spacing" text-decoration="underline" textLength="149" x="48" y="108.0566">Submit loan application</text></a><polygon fill="#181818" points="39,138.1094,29,142.1094,39,146.1094,35,142.1094" style="stroke:#181818;stroke-width:1.0;"/><line style="stroke:#181818;stroke-width:1.0;stroke-dasharray:2.0,2.0;" x1="33" x2="314" y1="142.1094" y2="142.1094"/><text fill="#000000" font-family="sans-serif" font-size="13" font-weight="bold" lengthAdjust="spacing" textLength="9" x="45" y="137.3672">2</text><text fill="#000000" font-family="sans-serif" font-size="13" lengthAdjust="spacing" textLength="172" x="58" y="137.3672">Loan application submitted</text><polygon fill="#181818" points="303,167.4199,313,171.4199,303,175.4199,307,171.4199" style="stroke:#181818;stroke-width:1.0;"/><line style="stroke:#181818;stroke-width:1.0;" x1="28" x2="309" y1="171.4199" y2="171.4199"/><text fill="#000000" font-family="sans-serif" font-size="13" font-weight="bold" lengthAdjust="spacing" textLength="9" x="35" y="166.6777">3</text><a href="https://github.com/PawelJaworski/ddd-loan-application/blob/main/src/main/java/pl/javorek/ddd/service/applicationforloan/application/command/ApplicationForALoanCmdFacade.java" target="_top" title="https://github.com/PawelJaworski/ddd-loan-application/blob/main/src/main/java/pl/javorek/ddd/service/applicationforloan/application/command/ApplicationForALoanCmdFacade.java" xlink:actuate="onRequest" xlink:href="https://github.com/PawelJaworski/ddd-loan-application/blob/main/src/main/java/pl/javorek/ddd/service/applicationforloan/application/command/ApplicationForALoanCmdFacade.java" xlink:show="new" xlink:title="https://github.com/PawelJaworski/ddd-loan-application/blob/main/src/main/java/pl/javorek/ddd/service/applicationforloan/application/command/ApplicationForALoanCmdFacade.java" xlink:type="simple"><text fill="#0000FF" font-family="sans-serif" font-size="13" lengthAdjust="spacing" text-decoration="underline" textLength="176" x="48" y="166.6777">Provide required documents</text></a><polygon fill="#181818" points="581,196.7305,591,200.7305,581,204.7305,585,200.7305" style="stroke:#181818;stroke-width:1.0;"/><line style="stroke:#181818;stroke-width:1.0;" x1="315" x2="587" y1="200.7305" y2="200.7305"/><text fill="#000000" font-family="sans-serif" font-size="13" font-weight="bold" lengthAdjust="spacing" textLength="9" x="322" y="195.9883">4</text><a href="https://github.com/PawelJaworski/ddd-loan-application/blob/main/src/main/java/pl/javorek/ddd/service/applicationforloan/application/command/ApplicationForALoanCmdFacade.java" target="_top" title="https://github.com/PawelJaworski/ddd-loan-application/blob/main/src/main/java/pl/javorek/ddd/service/applicationforloan/application/command/ApplicationForALoanCmdFacade.java" xlink:actuate="onRequest" xlink:href="https://github.com/PawelJaworski/ddd-loan-application/blob/main/src/main/java/pl/javorek/ddd/service/applicationforloan/application/command/ApplicationForALoanCmdFacade.java" xlink:show="new" xlink:title="https://github.com/PawelJaworski/ddd-loan-application/blob/main/src/main/java/pl/javorek/ddd/service/applicationforloan/application/command/ApplicationForALoanCmdFacade.java" xlink:type="simple"><text fill="#0000FF" font-family="sans-serif" font-size="13" lengthAdjust="spacing" text-decoration="underline" textLength="167" x="335" y="195.9883">Send request for loan start</text></a><line style="stroke:#181818;stroke-width:1.0;" x1="593" x2="635" y1="230.041" y2="230.041"/><line style="stroke:#181818;stroke-width:1.0;" x1="635" x2="635" y1="230.041" y2="243.041"/><line style="stroke:#181818;stroke-width:1.0;" x1="594" x2="635" y1="243.041" y2="243.041"/><polygon fill="#181818" points="604,239.041,594,243.041,604,247.041,600,243.041" style="stroke:#181818;stroke-width:1.0;"/><text fill="#000000" font-family="sans-serif" font-size="13" font-weight="bold" lengthAdjust="spacing" textLength="9" x="600" y="225.2988">5</text><text fill="#000000" font-family="sans-serif" font-size="13" lengthAdjust="spacing" textLength="125" x="613" y="225.2988">Accept loan request</text><polygon fill="#181818" points="326,268.3516,316,272.3516,326,276.3516,322,272.3516" style="stroke:#181818;stroke-width:1.0;"/><line style="stroke:#181818;stroke-width:1.0;stroke-dasharray:2.0,2.0;" x1="320" x2="592" y1="272.3516" y2="272.3516"/><text fill="#000000" font-family="sans-serif" font-size="13" font-weight="bold" lengthAdjust="spacing" textLength="9" x="332" y="267.6094">6</text><text fill="#000000" font-family="sans-serif" font-size="13" lengthAdjust="spacing" textLength="78" x="345" y="267.6094">Loan started</text><line style="stroke:#181818;stroke-width:1.0;" x1="315" x2="357" y1="301.6621" y2="301.6621"/><line style="stroke:#181818;stroke-width:1.0;" x1="357" x2="357" y1="301.6621" y2="314.6621"/><line style="stroke:#181818;stroke-width:1.0;" x1="316" x2="357" y1="314.6621" y2="314.6621"/><polygon fill="#181818" points="326,310.6621,316,314.6621,326,318.6621,322,314.6621" style="stroke:#181818;stroke-width:1.0;"/><text fill="#000000" font-family="sans-serif" font-size="13" font-weight="bold" lengthAdjust="spacing" textLength="9" x="322" y="296.9199">7</text><text fill="#000000" font-family="sans-serif" font-size="13" lengthAdjust="spacing" textLength="251" x="335" y="296.9199">Send communication about started loan</text><polygon fill="#181818" points="39,339.9727,29,343.9727,39,347.9727,35,343.9727" style="stroke:#181818;stroke-width:1.0;"/><line style="stroke:#181818;stroke-width:1.0;stroke-dasharray:2.0,2.0;" x1="33" x2="314" y1="343.9727" y2="343.9727"/><text fill="#000000" font-family="sans-serif" font-size="13" font-weight="bold" lengthAdjust="spacing" textLength="9" x="45" y="339.2305">8</text><text fill="#000000" font-family="sans-serif" font-size="13" lengthAdjust="spacing" textLength="250" x="58" y="339.2305">Communication about started loan sent</text><!--SRC=[tLCzRy8m4DtpAqximJi3Keh4K35KweWOplOLNFoH-WF4lw-T1190LUSsI-pBUy_tBi-OehF9SF8LYkWyhBGY6m43Y6urbFjdzeBs2BZFzLc1yBnjogxYBbc9_d93ZTyjwak8LIy7zN9amGAssqECRLWmjbVnaFXSECFUy4pw5S_EXwDYKifQExGrjgrM0gDobd7jE3EeB0jUz8jFF25hTNaxJyV2Ou7yIGbY4-g7yqLjMcBvK8DMicQihPrlDXctCdAD0YNDYpwy9svKXA804uNThXfTrTdZu7O1cmSaX4uXalmd4tdpxgGaWQUlf3n9a4uaaxs4-w4ifsduYt-UhEnCKcu_I_KP215zl1eTl3rPROIWTWZDe71FU8Z0vgQSK_8ymW7LDLJwJ_QQBSpNC5wPtNa_nNBr2mz2ndq3]--></g></svg>