<?xml version="1.0" encoding="us-ascii" standalone="no"?><svg xmlns="http://www.w3.org/2000/svg" xmlns:xlink="http://www.w3.org/1999/xlink" contentStyleType="text/css" height="400px" preserveAspectRatio="none" style="width:672px;height:400px;background:#FFFFFF;" version="1.1" viewBox="0 0 672 400" width="672px" zoomAndPan="magnify"><defs/><g><line style="stroke:#181818;stroke-width:0.5;stroke-dasharray:5.0,5.0;" x1="28" x2="28" y1="81.4883" y2="319.6621"/><line style="stroke:#181818;stroke-width:0.5;stroke-dasharray:5.0,5.0;" x1="316" x2="316" y1="81.4883" y2="319.6621"/><line style="stroke:#181818;stroke-width:0.5;stroke-dasharray:5.0,5.0;" x1="519.5" x2="519.5" y1="81.4883" y2="319.6621"/><text fill="#000000" font-family="sans-serif" font-size="14" lengthAdjust="spacing" textLength="40" x="5" y="78.5352">Client</text><ellipse cx="28" cy="13.5" fill="#E2E2F0" rx="8" ry="8" style="stroke:#181818;stroke-width:0.5;"/><path d="M28,21.5 L28,48.5 M15,29.5 L41,29.5 M28,48.5 L15,63.5 M28,48.5 L41,63.5 " fill="none" style="stroke:#181818;stroke-width:0.5;"/><text fill="#000000" font-family="sans-serif" font-size="14" lengthAdjust="spacing" textLength="40" x="5" y="332.1973">Client</text><ellipse cx="28" cy="343.6504" fill="#E2E2F0" rx="8" ry="8" style="stroke:#181818;stroke-width:0.5;"/><path d="M28,351.6504 L28,378.6504 M15,359.6504 L41,359.6504 M28,378.6504 L15,393.6504 M28,378.6504 L41,393.6504 " fill="none" style="stroke:#181818;stroke-width:0.5;"/><text fill="#000000" font-family="sans-serif" font-size="14" lengthAdjust="spacing" textLength="76" x="275" y="78.5352">Bank agent</text><ellipse cx="316" cy="13.5" fill="#E2E2F0" rx="8" ry="8" style="stroke:#181818;stroke-width:0.5;"/><path d="M316,21.5 L316,48.5 M303,29.5 L329,29.5 M316,48.5 L303,63.5 M316,48.5 L329,63.5 " fill="none" style="stroke:#181818;stroke-width:0.5;"/><text fill="#000000" font-family="sans-serif" font-size="14" lengthAdjust="spacing" textLength="76" x="275" y="332.1973">Bank agent</text><ellipse cx="316" cy="343.6504" fill="#E2E2F0" rx="8" ry="8" style="stroke:#181818;stroke-width:0.5;"/><path d="M316,351.6504 L316,378.6504 M303,359.6504 L329,359.6504 M316,378.6504 L303,393.6504 M316,378.6504 L329,393.6504 " fill="none" style="stroke:#181818;stroke-width:0.5;"/><text fill="#000000" font-family="sans-serif" font-size="14" lengthAdjust="spacing" textLength="33" x="500.5" y="78.5352">Bank</text><path d="M499.5,37 L499.5,61 M499.5,49 L516.5,49 " fill="none" style="stroke:#181818;stroke-width:0.5;"/><ellipse cx="528.5" cy="49" fill="#E2E2F0" rx="12" ry="12" style="stroke:#181818;stroke-width:0.5;"/><text fill="#000000" font-family="sans-serif" font-size="14" lengthAdjust="spacing" textLength="33" x="500.5" y="332.1973">Bank</text><path d="M499.5,339.1504 L499.5,363.1504 M499.5,351.1504 L516.5,351.1504 " fill="none" style="stroke:#181818;stroke-width:0.5;"/><ellipse cx="528.5" cy="351.1504" fill="#E2E2F0" rx="12" ry="12" style="stroke:#181818;stroke-width:0.5;"/><polygon fill="#181818" points="304,108.7988,314,112.7988,304,116.7988,308,112.7988" style="stroke:#181818;stroke-width:1.0;"/><line style="stroke:#181818;stroke-width:1.0;" x1="28" x2="310" y1="112.7988" y2="112.7988"/><text fill="#000000" font-family="sans-serif" font-size="13" font-weight="bold" lengthAdjust="spacing" textLength="9" x="35" y="108.0566">1</text><a href="https://github.com/PawelJaworski/ddd-loan-application/blob/main/src/main/java/pl/javorek/ddd/service/applicationforloan/application/command/ApplicationForALoanCmdFacade.java" target="_top" title="https://github.com/PawelJaworski/ddd-loan-application/blob/main/src/main/java/pl/javorek/ddd/service/applicationforloan/application/command/ApplicationForALoanCmdFacade.java" xlink:actuate="onRequest" xlink:href="https://github.com/PawelJaworski/ddd-loan-application/blob/main/src/main/java/pl/javorek/ddd/service/applicationforloan/application/command/ApplicationForALoanCmdFacade.java" xlink:show="new" xlink:title="https://github.com/PawelJaworski/ddd-loan-application/blob/main/src/main/java/pl/javorek/ddd/service/applicationforloan/application/command/ApplicationForALoanCmdFacade.java" xlink:type="simple"><text fill="#0000FF" font-family="sans-serif" font-size="13" lengthAdjust="spacing" text-decoration="underline" textLength="149" x="48" y="108.0566">Submit loan application</text></a><polygon fill="#181818" points="39,138.1094,29,142.1094,39,146.1094,35,142.1094" style="stroke:#181818;stroke-width:1.0;"/><line style="stroke:#181818;stroke-width:1.0;stroke-dasharray:2.0,2.0;" x1="33" x2="519" y1="142.1094" y2="142.1094"/><text fill="#000000" font-family="sans-serif" font-size="13" font-weight="bold" lengthAdjust="spacing" textLength="9" x="45" y="137.3672">2</text><text fill="#000000" font-family="sans-serif" font-size="13" lengthAdjust="spacing" textLength="172" x="58" y="137.3672">Loan application submitted</text><polygon fill="#181818" points="304,167.4199,314,171.4199,304,175.4199,308,171.4199" style="stroke:#181818;stroke-width:1.0;"/><line style="stroke:#181818;stroke-width:1.0;" x1="28" x2="310" y1="171.4199" y2="171.4199"/><text fill="#000000" font-family="sans-serif" font-size="13" font-weight="bold" lengthAdjust="spacing" textLength="9" x="35" y="166.6777">3</text><a href="https://github.com/PawelJaworski/ddd-loan-application/blob/main/src/main/java/pl/javorek/ddd/service/applicationforloan/application/command/ApplicationForALoanCmdFacade.java" target="_top" title="https://github.com/PawelJaworski/ddd-loan-application/blob/main/src/main/java/pl/javorek/ddd/service/applicationforloan/application/command/ApplicationForALoanCmdFacade.java" xlink:actuate="onRequest" xlink:href="https://github.com/PawelJaworski/ddd-loan-application/blob/main/src/main/java/pl/javorek/ddd/service/applicationforloan/application/command/ApplicationForALoanCmdFacade.java" xlink:show="new" xlink:title="https://github.com/PawelJaworski/ddd-loan-application/blob/main/src/main/java/pl/javorek/ddd/service/applicationforloan/application/command/ApplicationForALoanCmdFacade.java" xlink:type="simple"><text fill="#0000FF" font-family="sans-serif" font-size="13" lengthAdjust="spacing" text-decoration="underline" textLength="176" x="48" y="166.6777">Provide required documents</text></a><polygon fill="#181818" points="508,196.7305,518,200.7305,508,204.7305,512,200.7305" style="stroke:#181818;stroke-width:1.0;"/><line style="stroke:#181818;stroke-width:1.0;" x1="316" x2="514" y1="200.7305" y2="200.7305"/><text fill="#000000" font-family="sans-serif" font-size="13" font-weight="bold" lengthAdjust="spacing" textLength="9" x="323" y="195.9883">4</text><a href="https://github.com/PawelJaworski/ddd-loan-application/blob/main/src/main/java/pl/javorek/ddd/service/applicationforloan/application/command/ApplicationForALoanCmdFacade.java" target="_top" title="https://github.com/PawelJaworski/ddd-loan-application/blob/main/src/main/java/pl/javorek/ddd/service/applicationforloan/application/command/ApplicationForALoanCmdFacade.java" xlink:actuate="onRequest" xlink:href="https://github.com/PawelJaworski/ddd-loan-application/blob/main/src/main/java/pl/javorek/ddd/service/applicationforloan/application/command/ApplicationForALoanCmdFacade.java" xlink:show="new" xlink:title="https://github.com/PawelJaworski/ddd-loan-application/blob/main/src/main/java/pl/javorek/ddd/service/applicationforloan/application/command/ApplicationForALoanCmdFacade.java" xlink:type="simple"><text fill="#0000FF" font-family="sans-serif" font-size="13" lengthAdjust="spacing" text-decoration="underline" textLength="167" x="336" y="195.9883">Send request for loan start</text></a><line style="stroke:#181818;stroke-width:1.0;" x1="520" x2="562" y1="230.041" y2="230.041"/><line style="stroke:#181818;stroke-width:1.0;" x1="562" x2="562" y1="230.041" y2="243.041"/><line style="stroke:#181818;stroke-width:1.0;" x1="521" x2="562" y1="243.041" y2="243.041"/><polygon fill="#181818" points="531,239.041,521,243.041,531,247.041,527,243.041" style="stroke:#181818;stroke-width:1.0;"/><text fill="#000000" font-family="sans-serif" font-size="13" font-weight="bold" lengthAdjust="spacing" textLength="9" x="527" y="225.2988">5</text><text fill="#000000" font-family="sans-serif" font-size="13" lengthAdjust="spacing" textLength="125" x="540" y="225.2988">Accept loan request</text><polygon fill="#181818" points="327,268.3516,317,272.3516,327,276.3516,323,272.3516" style="stroke:#181818;stroke-width:1.0;"/><line style="stroke:#181818;stroke-width:1.0;stroke-dasharray:2.0,2.0;" x1="321" x2="519" y1="272.3516" y2="272.3516"/><text fill="#000000" font-family="sans-serif" font-size="13" font-weight="bold" lengthAdjust="spacing" textLength="9" x="333" y="267.6094">6</text><text fill="#000000" font-family="sans-serif" font-size="13" lengthAdjust="spacing" textLength="78" x="346" y="267.6094">Loan started</text><polygon fill="#181818" points="39,297.6621,29,301.6621,39,305.6621,35,301.6621" style="stroke:#181818;stroke-width:1.0;"/><line style="stroke:#181818;stroke-width:1.0;" x1="33" x2="315" y1="301.6621" y2="301.6621"/><text fill="#000000" font-family="sans-serif" font-size="13" font-weight="bold" lengthAdjust="spacing" textLength="9" x="45" y="296.9199">7</text><text fill="#000000" font-family="sans-serif" font-size="13" lengthAdjust="spacing" textLength="251" x="58" y="296.9199">Send communication about started loan</text><!--SRC=[tPExRiCm34LtVmMHtT6UeO0R84EH8K3780CbiOaQFLmz7EJlA_aHk-aNj5uiqUGHBtMDAJgR32TVeOZEmrOhiX4mWEXNOtXuLgzehu3d75-L59wtJTbLt2KhqTyVMVDtY_eUOZNWe7wPgs03n-CbnZPi63khU4byBPnX1xoHViERy-6gc9IorWvjZMshbS2ed6LSEyuCAik25yFY4pjahIvlv-bQwbWWtob1R57wuNoXBKCi7shGIjRCiPtppJxdROtSeK19wyA7zyIDYb08i22SJjL2AzHPvQXt0_kdN0Wz8vBy9pCvUDSfIU3fAobF4gGJoMGjOHhBUQbodD4Vl7koiXT9kVsC6bmG8lhuVF_FKXiXg1rjCn9-6MPfWVs3d5toOuGFM_NTbEQJdOo5-I-CKrb_s3S0]--></g></svg>